<svg height="512" viewBox="0 0 60 60" width="512" xmlns="http://www.w3.org/2000/svg"><g id="Page-1" fill="none" fill-rule="evenodd"><g id="040---Tennis" fill-rule="nonzero" transform="translate(0 -1)"><path id="Shape" d="m54.68 6.32c-6.66-6.65-18.61-5.5-26.69 2.59-1.3767709 1.3643411-2.5853602 2.8885064-3.6 4.54-2.8 4.55-3.33 9.95-5.22 14.88-1.933174 4.9929466-4.4973322 9.7179877-7.63 14.06l7.07 7.07c1.8576432-1.3328911 3.7835969-2.5679048 5.77-3.7 4.5995322-2.6957032 9.5688704-4.7036527 14.75-5.96 4.8837796-.9679375 9.3840928-3.3257405 12.96-6.79 8.09-8.08 9.24-20.03 2.59-26.69zm-27.63 32.52c-1.68.78-3.04 1.54-4.56 2.29-.751733.3713454-1.6565284.2222771-2.2494028-.3705972-.5928743-.5928744-.7419426-1.4976698-.3705972-2.2494028.75-1.52 1.51-2.88 2.29-4.56.1459361-.3250622.4538144-.5479154.8081975-.585002.354383-.0370867.7017291.1171966.9118025.405002.9149584 1.3016375 2.0483625 2.4350416 3.35 3.35.2878054.2100734.4420887.5574195.405002.9118025-.0370866.3543831-.2599398.6622614-.585002.8081975zm21.6-9.27c-6.18 6.18-15.04 7.33-19.8 2.58s-3.6-13.62 2.58-19.8 15.05-7.34 19.8-2.58 3.6 13.62-2.58 19.8z" fill="#02a9f4"/><path id="Shape" d="m54.68 6.32c-3.331002-3.19551683-7.9065584-4.75109613-12.495-4.248 3.57018.23892048 6.9375488 1.74545894 9.495 4.248 6.65 6.66 5.5 18.61-2.59 26.69-3.5759072 3.4642595-8.0762204 5.8220625-12.96 6.79-5.1811296 1.2563473-10.1504678 3.2642968-14.75 5.96-1.363.774-2.682 1.616-3.983 2.487l1.213 1.213c1.8576432-1.3328911 3.7835969-2.5679048 5.77-3.7 4.5995322-2.6957032 9.5688704-4.7036527 14.75-5.96 4.8837796-.9679375 9.3840928-3.3257405 12.96-6.79 8.09-8.08 9.24-20.03 2.59-26.69z" fill="#0377bc"/><path id="Shape" d="m18.61 49.46-9.66 9.66c-1.17127019 1.1698135-3.06872981 1.1698135-4.24 0l-2.83-2.83c-1.16981351-1.1712702-1.16981351-3.0687298 0-4.24l9.66-9.66z" fill="#ffdc00"/><path id="Shape" d="m11.54 42.39-1.5 1.5 5.57 5.57-9.66 9.66c-.18567309.1806148-.39409524.3362591-.62.463 1.17207466.684277 2.65787655.4942422 3.62-.463l9.66-9.66z" fill="#fec108"/><circle id="Oval" cx="50" cy="51" fill="#a4c400" r="9"/><path id="Shape" d="m45.24 59.64c-.4044441-.0016958-.7680455-.2468472-.9212679-.6211476s-.0658935-.8040433.2212679-1.0888524c.706-.703 1.46-3.371 1.46-6.93s-.754-6.227-1.464-6.93c-.2538372-.251515-.3542108-.6193449-.263311-.9649319.0908997-.3455869.359263-.616428.704-.7105.3447369-.094072.7134738.0029169.967311.2544319 1.249 1.238 2.056 4.516 2.056 8.351s-.807 7.113-2.056 8.351c-.1874079.1853501-.4404164.2892129-.704.289z" fill="#f5f5f5"/><path id="Shape" d="m54.76 59.64c-.2621979-.0008383-.5135777-.1046222-.7-.289-1.253-1.238-2.06-4.516-2.06-8.351s.807-7.113 2.056-8.351c.3923983-.3888085 1.0256915-.3858983 1.4145.0065s.3858983 1.0256915-.0065 1.4145c-.71.703-1.464 3.371-1.464 6.93s.754 6.227 1.464 6.93c.2871614.2848091.3744903.714552.2212679 1.0888524s-.5168238.6194518-.9212679.6211476z" fill="#f5f5f5"/><g fill="#000"><path id="Shape" d="m59.906 19.227c.6366308-4.9880569-1.0273911-9.99520684-4.523-13.61-3.6151554-3.49507646-8.6218874-5.15932741-13.61-4.524-5.5059473.6240792-10.6259676 3.13532723-14.49 7.107-1.4284031 1.42349523-2.6852872 3.0092835-3.745 4.725-1.6520185 2.9799516-2.8645589 6.1830791-3.6 9.51-.5 1.845-1.019 3.754-1.7 5.543-1.8958396 4.8854554-4.4031459 9.5109684-7.462 13.766l-3.476 3.47-6.128 6.129c-.75019009.7501514-1.17164575 1.7675983-1.17164575 2.8285s.42145566 2.0783486 1.17164575 2.8285l2.828 2.828c.75015144.7501901 1.76759833 1.1716458 2.8285 1.1716458s2.07834856-.4214557 2.8285-1.1716458l1.414-1.414 8.184-8.184c1.8103646-1.2940462 3.6850987-2.4955848 5.617-3.6 4.5132821-2.6540629 9.3925443-4.6295559 14.481-5.863 5.0715193-.9958448 9.7437376-3.4457452 13.447-7.051 3.9715738-3.863578 6.4825316-8.9833737 7.106-14.489zm-49.542 37.066-3.536-3.536c-.39237889-.3789722-1.01608478-.3735524-1.40181858.0121814-.38573379.3857338-.39115363 1.0094397-.01218142 1.4018186l3.536 3.536-.707.707c-.37509602.375248-.88392663.5860729-1.4145.5860729s-1.03940398-.2108249-1.4145-.5860729l-2.828-2.828c-.37524801-.375096-.58607293-.8839266-.58607293-1.4145s.21082492-1.039404.58607293-1.4145l5.421-5.421 3.536 3.536c.3923789.3789722 1.0160848.3735524 1.4018186-.0121814s.3911536-1.0094397.0121814-1.4018186l-3.536-3.536 2.122-2.122 2.828 2.829 2.829 2.829zm28.549-17.473c-5.2816001 1.2779115-10.3462515 3.3265497-15.031 6.08-1.738.99-3.47 2.084-5.157 3.259l-.741-.741-5.138-5.14c2.9580452-4.2189431 5.3938081-8.7808779 7.254-13.586.6842213-1.8804909 1.2733008-3.7942483 1.765-5.734.6859919-3.142815 1.8231052-6.1698403 3.376-8.987.9787939-1.5828058 2.1397121-3.0454486 3.459-4.358 3.5356112-3.64262829 8.22284-5.94949675 13.266-6.529 4.3916073-.57246959 8.8056752.87939091 12 3.947 6.256 6.255 5.1 17.592-2.582 25.271-3.4370949 3.3358798-7.7699538 5.6004597-12.471 6.518z"/><path id="Shape" d="m27.8 36.307c-1.2043125-.8546418-2.2557454-1.9064129-3.11-3.111-.4040952-.5785765-1.0885244-.8946138-1.791-.827-.7167641.0662457-1.3443401.5083669-1.648 1.161-.462.995-.929 1.9-1.379 2.767-.3.585-.6 1.166-.9 1.775-.5529408 1.1358976-.3240157 2.4975353.5699715 3.3901683.8939873.8926331 2.2559704 1.1194938 3.3910285.5648317.608-.3 1.191-.6 1.779-.905.868-.45 1.767-.915 2.76-1.376.652824-.3042843 1.0946311-.9327169 1.16-1.65.0666328-.7029191-.2515223-1.3870289-.832-1.789zm-1.175 1.625c-1.031.479-1.949.954-2.837 1.414-.576.3-1.147.593-1.738.885-.3674557.1856007-.8124919.1148443-1.1042661-.1755676-.2917743-.2904119-.3646128-.7351121-.1807339-1.1034324.292-.593.586-1.162.883-1.736.46-.889.937-1.809 1.407-2.869.9870893 1.3921025 2.2021721 2.6075235 3.594 3.595z"/><path id="Shape" d="m55.15 17.842c.2192474-3.2496294-.9473373-6.4402076-3.211-8.782-5.745-5.747-15.482-3.148-21.212 2.583-6.838 6.837-7.444 16.351-2.582 21.212 5.663 5.665 15.309 3.321 21.212-2.582 3.046433-2.9504999 5.0407467-6.8189837 5.677-11.012.062-.471.1-.935.114-1.393zm-3.157 5.044-1.928-1.928 2.89-2.89.16.16c-.019.257-.03.512-.064.774-.179998 1.335627-.5357454 2.6416035-1.058 3.884zm-3.369 5.24-2.864-2.864 2.891-2.89 2.4 2.4c-.6840404 1.2033073-1.4978991 2.3280218-2.427 3.354zm-4.765 3.843-2.4-2.4 2.889-2.89 2.862 2.861c-1.0247494.9298514-2.1484803 1.744397-3.351 2.429zm-13.548.131 1.123-1.123 2.89 2.89-.014.014c-1.4576718-.2606944-2.8300947-.8719185-3.999-1.781zm-3.194-5.415.013-.012 2.89 2.89-1.12 1.126c-.9096416-1.1695551-1.5215225-2.5425979-1.783-4.001zm.975-7.659 1.928 1.929-2.89 2.89-.16-.16c.018-.257.03-.512.064-.774.1802392-1.3349322.5359812-2.6402164 1.058-3.882zm3.368-5.236 2.864 2.864-2.89 2.889-2.4-2.4c.6837405-1.2029411 1.4972642-2.3273207 2.426-3.353zm4.765-3.843 2.4 2.4-2.89 2.89-2.864-2.864c1.0258406-.9289834 2.1505797-1.7425245 3.354-2.426zm13.549-.135-1.124 1.123-2.89-2.89.013-.014c1.4583382.26050097 2.8314547.87172829 4.001 1.781zm3.193 5.414-.012.013-2.891-2.89 1.123-1.122c.9089314 1.1688795 1.5198327 2.5413483 1.78 3.999zm-7.207 1.428 2.89-2.89 2.89 2.889-2.89 2.89zm1.476 4.3-2.89 2.891-2.89-2.89 2.89-2.89zm0-8.607-2.89 2.89-2.89-2.891 2.889-2.89zm-4.3 4.3-2.89 2.89-2.89-2.89 2.89-2.891zm-10.084 4.3 2.89-2.889 2.89 2.89-2.89 2.89zm1.476 4.305-2.89 2.89-2.89-2.89 2.89-2.89zm-1.476 4.3 2.89-2.89 2.89 2.89-2.89 2.89zm4.3-4.3 2.89-2.89 2.89 2.89-2.89 2.89zm4.848-17.303c.257-.033.511-.057.763-.075l.171.172-2.892 2.889-1.929-1.928c1.2433501-.52250873 2.5503517-.87826066 3.887-1.058zm-3.91 26.017c-.262.035-.517.046-.774.065l-.161-.16 2.89-2.891 1.929 1.929c-1.2433865.5221991-2.5503912.8776156-3.887 1.057z"/><path id="Shape" d="m18 16c.4043959-.0000863.7689341-.2437275.923678-.6173454.1547439-.373618.0692299-.8036603-.216678-1.0896546l-11-11c-.39237889-.37897221-1.01608478-.37355237-1.40181858.01218142-.38573379.3857338-.39115363 1.00943969-.01218142 1.40181858l11 11c.1874927.1875494.4418052.2929434.707.293z"/><path id="Shape" d="m15.293 21.707c.3923789.3789722 1.0160848.3735524 1.4018186-.0121814s.3911536-1.0094397.0121814-1.4018186l-11-11c-.39237889-.37897221-1.01608478-.37355237-1.40181858.01218142-.38573379.3857338-.39115363 1.00943968-.01218142 1.40181858z"/><path id="Shape" d="m50 41c-5.5228475 0-10 4.4771525-10 10s4.4771525 10 10 10 10-4.4771525 10-10c-.0060624-5.5203344-4.4796656-9.9939376-10-10zm0 18c-4.418278 0-8-3.581722-8-8s3.581722-8 8-8 8 3.581722 8 8c-.0049599 4.4162219-3.5837781 7.9950401-8 8z"/></g></g></g></svg>